<svg width="524" height="274" viewBox="0 0 524 274" fill="none" xmlns="http://www.w3.org/2000/svg">
<rect width="524" height="274" fill="#FBF7ED"/>
<path d="M198.959 105.231H192.426V123H188.031V105.231H181.586V101.672H198.959V105.231ZM205.331 108.879C206.454 107.531 207.865 106.857 209.564 106.857C213.002 106.857 214.745 108.854 214.794 112.849V123H210.561V112.966C210.561 112.058 210.365 111.389 209.975 110.959C209.584 110.52 208.935 110.3 208.026 110.3C206.786 110.3 205.888 110.778 205.331 111.735V123H201.098V100.5H205.331V108.879ZM225.282 123.293C222.958 123.293 221.063 122.58 219.599 121.154C218.144 119.729 217.416 117.829 217.416 115.456V115.046C217.416 113.454 217.724 112.033 218.339 110.783C218.954 109.523 219.823 108.557 220.946 107.883C222.079 107.199 223.368 106.857 224.813 106.857C226.981 106.857 228.686 107.541 229.926 108.908C231.176 110.275 231.801 112.214 231.801 114.724V116.452H221.708C221.845 117.487 222.255 118.317 222.938 118.942C223.632 119.567 224.506 119.88 225.561 119.88C227.191 119.88 228.466 119.289 229.384 118.107L231.464 120.437C230.829 121.335 229.97 122.038 228.886 122.546C227.802 123.044 226.601 123.293 225.282 123.293ZM224.799 110.285C223.959 110.285 223.275 110.568 222.748 111.135C222.23 111.701 221.898 112.512 221.752 113.566H227.641V113.229C227.621 112.292 227.367 111.569 226.879 111.062C226.391 110.544 225.697 110.285 224.799 110.285ZM253.026 117.404C253.026 116.574 252.733 115.939 252.147 115.5C251.562 115.051 250.507 114.582 248.983 114.094C247.46 113.596 246.254 113.107 245.365 112.629C242.943 111.32 241.732 109.558 241.732 107.341C241.732 106.188 242.055 105.163 242.699 104.265C243.354 103.356 244.286 102.648 245.497 102.141C246.718 101.633 248.085 101.379 249.599 101.379C251.122 101.379 252.479 101.657 253.671 102.214C254.862 102.761 255.785 103.537 256.439 104.543C257.104 105.549 257.436 106.691 257.436 107.971H253.041C253.041 106.994 252.733 106.237 252.118 105.7C251.503 105.153 250.639 104.88 249.525 104.88C248.451 104.88 247.616 105.109 247.021 105.568C246.425 106.018 246.127 106.613 246.127 107.355C246.127 108.049 246.474 108.63 247.167 109.099C247.87 109.567 248.9 110.007 250.258 110.417C252.758 111.169 254.579 112.102 255.722 113.215C256.864 114.328 257.436 115.715 257.436 117.375C257.436 119.221 256.737 120.671 255.341 121.726C253.944 122.771 252.064 123.293 249.701 123.293C248.061 123.293 246.566 122.995 245.219 122.399C243.871 121.794 242.841 120.969 242.128 119.924C241.425 118.879 241.073 117.668 241.073 116.291H245.482C245.482 118.645 246.889 119.821 249.701 119.821C250.746 119.821 251.562 119.611 252.147 119.191C252.733 118.762 253.026 118.166 253.026 117.404ZM264.276 108.879C265.399 107.531 266.811 106.857 268.51 106.857C271.947 106.857 273.69 108.854 273.739 112.849V123H269.506V112.966C269.506 112.058 269.311 111.389 268.92 110.959C268.529 110.52 267.88 110.3 266.972 110.3C265.731 110.3 264.833 110.778 264.276 111.735V123H260.043V100.5H264.276V108.879ZM276.273 114.929C276.273 113.356 276.576 111.955 277.182 110.725C277.787 109.494 278.656 108.542 279.789 107.868C280.932 107.194 282.255 106.857 283.759 106.857C285.897 106.857 287.641 107.512 288.988 108.82C290.346 110.129 291.103 111.906 291.259 114.152L291.288 115.236C291.288 117.668 290.609 119.621 289.252 121.096C287.895 122.561 286.073 123.293 283.788 123.293C281.503 123.293 279.677 122.561 278.31 121.096C276.952 119.631 276.273 117.639 276.273 115.119V114.929ZM280.507 115.236C280.507 116.74 280.79 117.893 281.356 118.693C281.923 119.484 282.733 119.88 283.788 119.88C284.813 119.88 285.614 119.489 286.19 118.708C286.767 117.917 287.055 116.657 287.055 114.929C287.055 113.454 286.767 112.312 286.19 111.501C285.614 110.69 284.804 110.285 283.759 110.285C282.724 110.285 281.923 110.69 281.356 111.501C280.79 112.302 280.507 113.547 280.507 115.236ZM308.163 115.222C308.163 117.663 307.606 119.621 306.493 121.096C305.39 122.561 303.896 123.293 302.011 123.293C300.409 123.293 299.115 122.736 298.129 121.623V129.094H293.896V107.15H297.821L297.968 108.703C298.993 107.473 300.331 106.857 301.981 106.857C303.935 106.857 305.453 107.58 306.537 109.025C307.621 110.471 308.163 112.463 308.163 115.002V115.222ZM303.93 114.914C303.93 113.439 303.666 112.302 303.139 111.501C302.621 110.7 301.864 110.3 300.868 110.3C299.54 110.3 298.627 110.808 298.129 111.823V118.312C298.646 119.357 299.569 119.88 300.897 119.88C302.919 119.88 303.93 118.225 303.93 114.914ZM325.067 115.222C325.067 117.663 324.511 119.621 323.397 121.096C322.294 122.561 320.8 123.293 318.915 123.293C317.313 123.293 316.02 122.736 315.033 121.623V129.094H310.8V107.15H314.726L314.872 108.703C315.897 107.473 317.235 106.857 318.886 106.857C320.839 106.857 322.357 107.58 323.441 109.025C324.525 110.471 325.067 112.463 325.067 115.002V115.222ZM320.834 114.914C320.834 113.439 320.57 112.302 320.043 111.501C319.525 110.7 318.769 110.3 317.772 110.3C316.444 110.3 315.531 110.808 315.033 111.823V118.312C315.551 119.357 316.474 119.88 317.802 119.88C319.823 119.88 320.834 118.225 320.834 114.914ZM332.172 123H327.924V107.15H332.172V123ZM327.675 103.049C327.675 102.414 327.885 101.892 328.305 101.481C328.734 101.071 329.315 100.866 330.048 100.866C330.771 100.866 331.347 101.071 331.776 101.481C332.206 101.892 332.421 102.414 332.421 103.049C332.421 103.693 332.201 104.221 331.762 104.631C331.332 105.041 330.761 105.246 330.048 105.246C329.335 105.246 328.759 105.041 328.319 104.631C327.89 104.221 327.675 103.693 327.675 103.049ZM342.968 123.293C340.644 123.293 338.749 122.58 337.284 121.154C335.829 119.729 335.102 117.829 335.102 115.456V115.046C335.102 113.454 335.409 112.033 336.024 110.783C336.64 109.523 337.509 108.557 338.632 107.883C339.765 107.199 341.054 106.857 342.499 106.857C344.667 106.857 346.371 107.541 347.611 108.908C348.861 110.275 349.486 112.214 349.486 114.724V116.452H339.394C339.53 117.487 339.94 118.317 340.624 118.942C341.317 119.567 342.191 119.88 343.246 119.88C344.877 119.88 346.151 119.289 347.069 118.107L349.149 120.437C348.515 121.335 347.655 122.038 346.571 122.546C345.487 123.044 344.286 123.293 342.968 123.293ZM342.484 110.285C341.645 110.285 340.961 110.568 340.434 111.135C339.916 111.701 339.584 112.512 339.438 113.566H345.326V113.229C345.307 112.292 345.053 111.569 344.564 111.062C344.076 110.544 343.383 110.285 342.484 110.285ZM360.487 118.62C360.487 118.103 360.229 117.697 359.711 117.404C359.203 117.102 358.383 116.833 357.25 116.599C353.48 115.808 351.596 114.206 351.596 111.794C351.596 110.388 352.177 109.216 353.339 108.278C354.511 107.331 356.039 106.857 357.924 106.857C359.936 106.857 361.542 107.331 362.743 108.278C363.954 109.226 364.56 110.456 364.56 111.97H360.326C360.326 111.364 360.131 110.866 359.74 110.476C359.35 110.075 358.739 109.875 357.909 109.875C357.196 109.875 356.645 110.036 356.254 110.358C355.863 110.681 355.668 111.091 355.668 111.589C355.668 112.058 355.888 112.438 356.327 112.731C356.776 113.015 357.528 113.264 358.583 113.479C359.638 113.684 360.526 113.918 361.249 114.182C363.485 115.002 364.604 116.423 364.604 118.444C364.604 119.89 363.983 121.062 362.743 121.96C361.503 122.849 359.901 123.293 357.938 123.293C356.61 123.293 355.429 123.059 354.394 122.59C353.368 122.111 352.562 121.462 351.977 120.642C351.391 119.812 351.098 118.918 351.098 117.961H355.111C355.15 118.713 355.429 119.289 355.946 119.689C356.464 120.09 357.157 120.29 358.026 120.29C358.837 120.29 359.447 120.139 359.857 119.836C360.277 119.523 360.487 119.118 360.487 118.62Z" fill="#004C3F"/>
<path d="M184.665 139.203L188.849 149.645L193.032 139.203H195.221V152H193.533V147.017L193.691 141.638L189.49 152H188.198L184.006 141.664L184.173 147.017V152H182.485V139.203H184.665ZM197.515 147.157C197.515 146.226 197.696 145.388 198.06 144.644C198.429 143.899 198.938 143.325 199.589 142.921C200.245 142.517 200.992 142.314 201.83 142.314C203.125 142.314 204.171 142.763 204.968 143.659C205.771 144.556 206.172 145.748 206.172 147.236V147.351C206.172 148.276 205.993 149.108 205.636 149.847C205.284 150.579 204.777 151.15 204.115 151.561C203.459 151.971 202.703 152.176 201.848 152.176C200.559 152.176 199.513 151.728 198.71 150.831C197.913 149.935 197.515 148.748 197.515 147.271V147.157ZM199.149 147.351C199.149 148.405 199.393 149.252 199.879 149.891C200.371 150.529 201.027 150.849 201.848 150.849C202.674 150.849 203.33 150.526 203.816 149.882C204.303 149.231 204.546 148.323 204.546 147.157C204.546 146.114 204.297 145.271 203.799 144.626C203.307 143.976 202.65 143.65 201.83 143.65C201.027 143.65 200.38 143.97 199.888 144.608C199.396 145.247 199.149 146.161 199.149 147.351ZM211.208 149.794L213.563 142.49H215.225L211.814 152H210.575L207.13 142.49H208.791L211.208 149.794ZM218.556 152H216.93V142.49H218.556V152ZM216.798 139.968C216.798 139.704 216.877 139.481 217.035 139.3C217.199 139.118 217.439 139.027 217.756 139.027C218.072 139.027 218.312 139.118 218.477 139.3C218.641 139.481 218.723 139.704 218.723 139.968C218.723 140.231 218.641 140.451 218.477 140.627C218.312 140.803 218.072 140.891 217.756 140.891C217.439 140.891 217.199 140.803 217.035 140.627C216.877 140.451 216.798 140.231 216.798 139.968ZM225.112 152.176C223.823 152.176 222.774 151.754 221.966 150.91C221.157 150.061 220.753 148.927 220.753 147.509V147.21C220.753 146.267 220.932 145.426 221.289 144.688C221.652 143.943 222.156 143.363 222.801 142.947C223.451 142.525 224.154 142.314 224.91 142.314C226.146 142.314 227.107 142.722 227.793 143.536C228.479 144.351 228.821 145.517 228.821 147.034V147.711H222.379C222.402 148.648 222.675 149.407 223.196 149.987C223.724 150.562 224.392 150.849 225.2 150.849C225.774 150.849 226.261 150.731 226.659 150.497C227.058 150.263 227.406 149.952 227.705 149.565L228.698 150.339C227.901 151.563 226.706 152.176 225.112 152.176ZM224.91 143.65C224.254 143.65 223.703 143.891 223.258 144.371C222.812 144.846 222.537 145.514 222.432 146.375H227.195V146.252C227.148 145.426 226.926 144.787 226.527 144.336C226.129 143.879 225.59 143.65 224.91 143.65ZM241.047 152C240.953 151.812 240.877 151.479 240.818 150.998C240.062 151.783 239.16 152.176 238.111 152.176C237.174 152.176 236.403 151.912 235.8 151.385C235.202 150.852 234.903 150.178 234.903 149.363C234.903 148.373 235.278 147.605 236.028 147.061C236.784 146.51 237.845 146.234 239.21 146.234H240.792V145.487C240.792 144.919 240.622 144.468 240.282 144.134C239.942 143.794 239.441 143.624 238.779 143.624C238.199 143.624 237.713 143.771 237.32 144.063C236.928 144.356 236.731 144.711 236.731 145.127H235.097C235.097 144.652 235.264 144.195 235.598 143.756C235.938 143.311 236.395 142.959 236.969 142.701C237.549 142.443 238.185 142.314 238.876 142.314C239.972 142.314 240.83 142.59 241.451 143.141C242.072 143.686 242.395 144.438 242.418 145.399V149.776C242.418 150.649 242.529 151.344 242.752 151.859V152H241.047ZM238.349 150.761C238.858 150.761 239.342 150.629 239.799 150.365C240.256 150.102 240.587 149.759 240.792 149.337V147.386H239.518C237.525 147.386 236.529 147.969 236.529 149.135C236.529 149.645 236.699 150.043 237.039 150.33C237.379 150.617 237.815 150.761 238.349 150.761ZM253.387 149.759L255.215 142.49H256.841L254.072 152H252.754L250.442 144.793L248.192 152H246.874L244.114 142.49H245.731L247.604 149.609L249.818 142.49H251.128L253.387 149.759ZM264.373 152C264.279 151.812 264.203 151.479 264.145 150.998C263.389 151.783 262.486 152.176 261.438 152.176C260.5 152.176 259.729 151.912 259.126 151.385C258.528 150.852 258.229 150.178 258.229 149.363C258.229 148.373 258.604 147.605 259.354 147.061C260.11 146.51 261.171 146.234 262.536 146.234H264.118V145.487C264.118 144.919 263.948 144.468 263.608 144.134C263.269 143.794 262.768 143.624 262.105 143.624C261.525 143.624 261.039 143.771 260.646 144.063C260.254 144.356 260.058 144.711 260.058 145.127H258.423C258.423 144.652 258.59 144.195 258.924 143.756C259.264 143.311 259.721 142.959 260.295 142.701C260.875 142.443 261.511 142.314 262.202 142.314C263.298 142.314 264.156 142.59 264.777 143.141C265.398 143.686 265.721 144.438 265.744 145.399V149.776C265.744 150.649 265.855 151.344 266.078 151.859V152H264.373ZM261.675 150.761C262.185 150.761 262.668 150.629 263.125 150.365C263.582 150.102 263.913 149.759 264.118 149.337V147.386H262.844C260.852 147.386 259.855 147.969 259.855 149.135C259.855 149.645 260.025 150.043 260.365 150.33C260.705 150.617 261.142 150.761 261.675 150.761ZM272.89 143.949C272.644 143.908 272.377 143.888 272.09 143.888C271.023 143.888 270.3 144.342 269.919 145.25V152H268.293V142.49H269.875L269.901 143.589C270.435 142.739 271.19 142.314 272.169 142.314C272.485 142.314 272.726 142.355 272.89 142.438V143.949ZM273.821 147.166C273.821 145.707 274.167 144.535 274.858 143.65C275.55 142.76 276.455 142.314 277.574 142.314C278.688 142.314 279.569 142.695 280.22 143.457V138.5H281.846V152H280.352L280.272 150.98C279.622 151.777 278.717 152.176 277.557 152.176C276.455 152.176 275.556 151.725 274.858 150.822C274.167 149.92 273.821 148.742 273.821 147.289V147.166ZM275.447 147.351C275.447 148.429 275.67 149.272 276.115 149.882C276.561 150.491 277.176 150.796 277.961 150.796C278.992 150.796 279.745 150.333 280.22 149.407V145.039C279.733 144.143 278.986 143.694 277.979 143.694C277.182 143.694 276.561 144.002 276.115 144.617C275.67 145.232 275.447 146.144 275.447 147.351ZM289.914 149.478C289.914 149.038 289.747 148.698 289.413 148.458C289.085 148.212 288.508 148.001 287.682 147.825C286.861 147.649 286.208 147.438 285.722 147.192C285.241 146.946 284.884 146.653 284.649 146.313C284.421 145.974 284.307 145.569 284.307 145.101C284.307 144.321 284.635 143.662 285.291 143.123C285.953 142.584 286.797 142.314 287.822 142.314C288.9 142.314 289.773 142.593 290.441 143.149C291.115 143.706 291.452 144.418 291.452 145.285H289.817C289.817 144.84 289.627 144.456 289.246 144.134C288.871 143.812 288.396 143.65 287.822 143.65C287.23 143.65 286.768 143.779 286.434 144.037C286.1 144.295 285.933 144.632 285.933 145.048C285.933 145.44 286.088 145.736 286.398 145.936C286.709 146.135 287.269 146.325 288.077 146.507C288.892 146.688 289.551 146.905 290.055 147.157C290.559 147.409 290.931 147.714 291.171 148.071C291.417 148.423 291.54 148.854 291.54 149.363C291.54 150.213 291.2 150.896 290.521 151.411C289.841 151.921 288.959 152.176 287.875 152.176C287.113 152.176 286.439 152.041 285.854 151.771C285.268 151.502 284.808 151.127 284.474 150.646C284.146 150.16 283.981 149.636 283.981 149.073H285.607C285.637 149.618 285.854 150.052 286.258 150.374C286.668 150.69 287.207 150.849 287.875 150.849C288.49 150.849 288.982 150.726 289.352 150.479C289.727 150.228 289.914 149.894 289.914 149.478ZM298.923 152V143.747H297.42V142.49H298.923V141.515C298.923 140.495 299.195 139.707 299.74 139.15C300.285 138.594 301.056 138.315 302.052 138.315C302.427 138.315 302.799 138.365 303.168 138.465L303.08 139.783C302.805 139.73 302.512 139.704 302.201 139.704C301.674 139.704 301.267 139.859 300.979 140.17C300.692 140.475 300.549 140.914 300.549 141.488V142.49H302.579V143.747H300.549V152H298.923ZM303.95 147.157C303.95 146.226 304.132 145.388 304.495 144.644C304.864 143.899 305.374 143.325 306.024 142.921C306.681 142.517 307.428 142.314 308.266 142.314C309.561 142.314 310.606 142.763 311.403 143.659C312.206 144.556 312.607 145.748 312.607 147.236V147.351C312.607 148.276 312.429 149.108 312.071 149.847C311.72 150.579 311.213 151.15 310.551 151.561C309.895 151.971 309.139 152.176 308.283 152.176C306.994 152.176 305.948 151.728 305.146 150.831C304.349 149.935 303.95 148.748 303.95 147.271V147.157ZM305.585 147.351C305.585 148.405 305.828 149.252 306.314 149.891C306.807 150.529 307.463 150.849 308.283 150.849C309.109 150.849 309.766 150.526 310.252 149.882C310.738 149.231 310.981 148.323 310.981 147.157C310.981 146.114 310.732 145.271 310.234 144.626C309.742 143.976 309.086 143.65 308.266 143.65C307.463 143.65 306.815 143.97 306.323 144.608C305.831 145.247 305.585 146.161 305.585 147.351ZM319.243 143.949C318.997 143.908 318.73 143.888 318.443 143.888C317.377 143.888 316.653 144.342 316.272 145.25V152H314.646V142.49H316.229L316.255 143.589C316.788 142.739 317.544 142.314 318.522 142.314C318.839 142.314 319.079 142.355 319.243 142.438V143.949ZM329.157 152.176C327.868 152.176 326.819 151.754 326.011 150.91C325.202 150.061 324.798 148.927 324.798 147.509V147.21C324.798 146.267 324.977 145.426 325.334 144.688C325.697 143.943 326.201 143.363 326.846 142.947C327.496 142.525 328.199 142.314 328.955 142.314C330.191 142.314 331.152 142.722 331.838 143.536C332.523 144.351 332.866 145.517 332.866 147.034V147.711H326.424C326.447 148.648 326.72 149.407 327.241 149.987C327.769 150.562 328.437 150.849 329.245 150.849C329.819 150.849 330.306 150.731 330.704 150.497C331.103 150.263 331.451 149.952 331.75 149.565L332.743 150.339C331.946 151.563 330.751 152.176 329.157 152.176ZM328.955 143.65C328.299 143.65 327.748 143.891 327.303 144.371C326.857 144.846 326.582 145.514 326.477 146.375H331.24V146.252C331.193 145.426 330.971 144.787 330.572 144.336C330.174 143.879 329.635 143.65 328.955 143.65ZM336.294 142.49L336.347 143.686C337.073 142.771 338.022 142.314 339.194 142.314C341.204 142.314 342.218 143.448 342.235 145.716V152H340.609V145.707C340.604 145.021 340.445 144.515 340.135 144.187C339.83 143.858 339.353 143.694 338.702 143.694C338.175 143.694 337.712 143.835 337.313 144.116C336.915 144.397 336.604 144.767 336.382 145.224V152H334.756V142.49H336.294ZM346.894 140.188V142.49H348.669V143.747H346.894V149.645C346.894 150.025 346.973 150.312 347.131 150.506C347.289 150.693 347.559 150.787 347.939 150.787C348.127 150.787 348.385 150.752 348.713 150.682V152C348.285 152.117 347.869 152.176 347.465 152.176C346.738 152.176 346.19 151.956 345.821 151.517C345.452 151.077 345.268 150.453 345.268 149.645V143.747H343.536V142.49H345.268V140.188H346.894ZM355.173 143.949C354.927 143.908 354.66 143.888 354.373 143.888C353.307 143.888 352.583 144.342 352.202 145.25V152H350.576V142.49H352.158L352.185 143.589C352.718 142.739 353.474 142.314 354.452 142.314C354.769 142.314 355.009 142.355 355.173 142.438V143.949ZM360.446 152.176C359.157 152.176 358.108 151.754 357.3 150.91C356.491 150.061 356.087 148.927 356.087 147.509V147.21C356.087 146.267 356.266 145.426 356.623 144.688C356.986 143.943 357.49 143.363 358.135 142.947C358.785 142.525 359.488 142.314 360.244 142.314C361.48 142.314 362.441 142.722 363.127 143.536C363.812 144.351 364.155 145.517 364.155 147.034V147.711H357.713C357.736 148.648 358.009 149.407 358.53 149.987C359.058 150.562 359.726 150.849 360.534 150.849C361.108 150.849 361.595 150.731 361.993 150.497C362.392 150.263 362.74 149.952 363.039 149.565L364.032 150.339C363.235 151.563 362.04 152.176 360.446 152.176ZM360.244 143.65C359.588 143.65 359.037 143.891 358.592 144.371C358.146 144.846 357.871 145.514 357.766 146.375H362.529V146.252C362.482 145.426 362.26 144.787 361.861 144.336C361.463 143.879 360.924 143.65 360.244 143.65ZM374.078 147.351C374.078 148.798 373.747 149.964 373.085 150.849C372.423 151.733 371.526 152.176 370.396 152.176C369.241 152.176 368.333 151.81 367.671 151.077V155.656H366.045V142.49H367.53L367.609 143.545C368.271 142.725 369.191 142.314 370.369 142.314C371.512 142.314 372.414 142.745 373.076 143.606C373.744 144.468 374.078 145.666 374.078 147.201V147.351ZM372.452 147.166C372.452 146.094 372.224 145.247 371.767 144.626C371.31 144.005 370.683 143.694 369.886 143.694C368.901 143.694 368.163 144.131 367.671 145.004V149.548C368.157 150.415 368.901 150.849 369.903 150.849C370.683 150.849 371.301 150.541 371.758 149.926C372.221 149.305 372.452 148.385 372.452 147.166ZM380.749 143.949C380.503 143.908 380.236 143.888 379.949 143.888C378.883 143.888 378.159 144.342 377.778 145.25V152H376.152V142.49H377.734L377.761 143.589C378.294 142.739 379.05 142.314 380.028 142.314C380.345 142.314 380.585 142.355 380.749 142.438V143.949ZM386.022 152.176C384.733 152.176 383.685 151.754 382.876 150.91C382.067 150.061 381.663 148.927 381.663 147.509V147.21C381.663 146.267 381.842 145.426 382.199 144.688C382.562 143.943 383.066 143.363 383.711 142.947C384.361 142.525 385.064 142.314 385.82 142.314C387.057 142.314 388.018 142.722 388.703 143.536C389.389 144.351 389.731 145.517 389.731 147.034V147.711H383.289C383.312 148.648 383.585 149.407 384.106 149.987C384.634 150.562 385.302 150.849 386.11 150.849C386.685 150.849 387.171 150.731 387.569 150.497C387.968 150.263 388.316 149.952 388.615 149.565L389.608 150.339C388.812 151.563 387.616 152.176 386.022 152.176ZM385.82 143.65C385.164 143.65 384.613 143.891 384.168 144.371C383.723 144.846 383.447 145.514 383.342 146.375H388.105V146.252C388.059 145.426 387.836 144.787 387.438 144.336C387.039 143.879 386.5 143.65 385.82 143.65ZM393.159 142.49L393.212 143.686C393.938 142.771 394.888 142.314 396.06 142.314C398.069 142.314 399.083 143.448 399.101 145.716V152H397.475V145.707C397.469 145.021 397.311 144.515 397 144.187C396.695 143.858 396.218 143.694 395.567 143.694C395.04 143.694 394.577 143.835 394.179 144.116C393.78 144.397 393.47 144.767 393.247 145.224V152H391.621V142.49H393.159ZM405.499 152.176C404.21 152.176 403.161 151.754 402.353 150.91C401.544 150.061 401.14 148.927 401.14 147.509V147.21C401.14 146.267 401.318 145.426 401.676 144.688C402.039 143.943 402.543 143.363 403.188 142.947C403.838 142.525 404.541 142.314 405.297 142.314C406.533 142.314 407.494 142.722 408.18 143.536C408.865 144.351 409.208 145.517 409.208 147.034V147.711H402.766C402.789 148.648 403.062 149.407 403.583 149.987C404.11 150.562 404.778 150.849 405.587 150.849C406.161 150.849 406.647 150.731 407.046 150.497C407.444 150.263 407.793 149.952 408.092 149.565L409.085 150.339C408.288 151.563 407.093 152.176 405.499 152.176ZM405.297 143.65C404.641 143.65 404.09 143.891 403.645 144.371C403.199 144.846 402.924 145.514 402.818 146.375H407.582V146.252C407.535 145.426 407.312 144.787 406.914 144.336C406.516 143.879 405.977 143.65 405.297 143.65ZM416.969 151.06C416.336 151.804 415.407 152.176 414.183 152.176C413.169 152.176 412.396 151.883 411.862 151.297C411.335 150.705 411.068 149.832 411.062 148.678V142.49H412.688V148.634C412.688 150.075 413.274 150.796 414.446 150.796C415.688 150.796 416.515 150.333 416.925 149.407V142.49H418.551V152H417.004L416.969 151.06ZM425.626 143.949C425.38 143.908 425.113 143.888 424.826 143.888C423.76 143.888 423.036 144.342 422.655 145.25V152H421.029V142.49H422.611L422.638 143.589C423.171 142.739 423.927 142.314 424.905 142.314C425.222 142.314 425.462 142.355 425.626 142.438V143.949ZM432.666 149.478C432.666 149.038 432.499 148.698 432.165 148.458C431.837 148.212 431.26 148.001 430.434 147.825C429.613 147.649 428.96 147.438 428.474 147.192C427.993 146.946 427.636 146.653 427.401 146.313C427.173 145.974 427.059 145.569 427.059 145.101C427.059 144.321 427.387 143.662 428.043 143.123C428.705 142.584 429.549 142.314 430.574 142.314C431.652 142.314 432.525 142.593 433.193 143.149C433.867 143.706 434.204 144.418 434.204 145.285H432.569C432.569 144.84 432.379 144.456 431.998 144.134C431.623 143.812 431.148 143.65 430.574 143.65C429.982 143.65 429.52 143.779 429.186 144.037C428.852 144.295 428.685 144.632 428.685 145.048C428.685 145.44 428.84 145.736 429.15 145.936C429.461 146.135 430.021 146.325 430.829 146.507C431.644 146.688 432.303 146.905 432.807 147.157C433.311 147.409 433.683 147.714 433.923 148.071C434.169 148.423 434.292 148.854 434.292 149.363C434.292 150.213 433.952 150.896 433.272 151.411C432.593 151.921 431.711 152.176 430.627 152.176C429.865 152.176 429.191 152.041 428.605 151.771C428.02 151.502 427.56 151.127 427.226 150.646C426.897 150.16 426.733 149.636 426.733 149.073H428.359C428.389 149.618 428.605 150.052 429.01 150.374C429.42 150.69 429.959 150.849 430.627 150.849C431.242 150.849 431.734 150.726 432.104 150.479C432.479 150.228 432.666 149.894 432.666 149.478Z" fill="#686868"/>
<path d="M88 155.659V97.3412C88.0019 95.66 88.6727 94.0483 89.8651 92.8595C91.0576 91.6708 92.6743 91.002 94.3608 91H159.639C161.326 91.002 162.942 91.6708 164.135 92.8595C165.327 94.0483 165.998 95.66 166 97.3412V155.659C165.998 157.34 165.327 158.952 164.135 160.14C162.942 161.329 161.326 161.998 159.639 162H94.3608C92.6743 161.998 91.0576 161.329 89.8651 160.14C88.6727 158.952 88.0019 157.34 88 155.659ZM101.27 158.544V146.724H91.4667V155.659C91.4675 156.424 91.7726 157.157 92.3152 157.698C92.8577 158.239 93.5934 158.543 94.3608 158.544H101.27ZM152.73 141.226H162.533V129.249H152.73V141.226ZM162.533 123.751V111.774L152.73 111.774V123.751H162.533ZM101.27 111.774H91.4667V123.751H101.27V111.774ZM91.4667 129.249V141.226H101.27V129.249H91.4667ZM162.533 155.659V146.724H152.73V158.544H159.639C160.407 158.543 161.142 158.239 161.685 157.698C162.227 157.157 162.533 156.424 162.533 155.659ZM152.73 94.4558V106.276H162.533V97.3412C162.533 96.5762 162.227 95.8428 161.685 95.3019C161.142 94.761 160.407 94.4567 159.639 94.4558L152.73 94.4558ZM91.4667 97.3412V106.276H101.27V94.4558H94.3608C93.5934 94.4567 92.8578 94.761 92.3152 95.3019C91.7726 95.8428 91.4675 96.5762 91.4667 97.3412Z" fill="#95BF47"/>
<path d="M101.27 158.544V146.724H91.4667V155.659C91.4675 156.424 91.7726 157.157 92.3152 157.698C92.8577 158.239 93.5934 158.543 94.3608 158.544H101.27ZM101.27 111.774H91.4667V123.751H101.27V111.774ZM91.4667 129.249V141.226H101.27V129.249H91.4667ZM91.4667 97.3412V106.276H101.27V94.4558H94.3608C93.5934 94.4567 92.8578 94.761 92.3152 95.3019C91.7726 95.8428 91.4675 96.5762 91.4667 97.3412Z" fill="#5E8E3E"/>
<path d="M152 141.226H163.081V129.249H152V141.226ZM163.081 123.751V111.774L152 111.774V123.751H163.081ZM163.081 155.659V146.724H152V158.544H159.81C160.677 158.543 161.509 158.239 162.122 157.698C162.735 157.157 163.08 156.424 163.081 155.659ZM152 94.4558V106.276H163.081V97.3412C163.08 96.5762 162.735 95.8428 162.122 95.3019C161.509 94.761 160.677 94.4567 159.81 94.4558L152 94.4558Z" fill="#5E8E3E"/>
<path d="M124.1 117.6C124.1 118.167 124.233 118.667 124.5 119.1C124.767 119.533 125.133 119.917 125.6 120.25C126.1 120.583 126.683 120.9 127.35 121.2C128.017 121.467 128.75 121.75 129.55 122.05C130.517 122.417 131.467 122.85 132.4 123.35C133.367 123.817 134.217 124.4 134.95 125.1C135.717 125.767 136.333 126.583 136.8 127.55C137.267 128.517 137.5 129.667 137.5 131C137.5 133.133 137.083 134.95 136.25 136.45C135.45 137.917 134.383 139.117 133.05 140.05C131.717 140.95 130.2 141.6 128.5 142C126.8 142.4 125.067 142.6 123.3 142.6C121.1 142.6 119.1 142.333 117.3 141.8C115.5 141.267 114 140.617 112.8 139.85L115.45 134.45C116.517 135.417 117.75 136.217 119.15 136.85C120.583 137.483 122.3 137.8 124.3 137.8C126.767 137.8 128.567 137.333 129.7 136.4C130.833 135.467 131.4 134.283 131.4 132.85C131.4 132.05 131.2 131.35 130.8 130.75C130.433 130.15 129.967 129.65 129.4 129.25C128.833 128.817 128.217 128.467 127.55 128.2C126.917 127.933 126.35 127.7 125.85 127.5C124.983 127.2 124.1 126.85 123.2 126.45C122.333 126.05 121.517 125.55 120.75 124.95C120.017 124.317 119.417 123.55 118.95 122.65C118.483 121.75 118.25 120.633 118.25 119.3C118.25 117.4 118.583 115.783 119.25 114.45C119.917 113.083 120.817 111.983 121.95 111.15C123.117 110.317 124.467 109.717 126 109.35C127.567 108.95 129.217 108.75 130.95 108.75C132.783 108.75 134.517 108.933 136.15 109.3C137.817 109.667 139.167 110.117 140.2 110.65L137.75 115.95C136.717 115.183 135.45 114.583 133.95 114.15C132.483 113.717 131.083 113.5 129.75 113.5C128.05 113.5 126.683 113.833 125.65 114.5C124.617 115.167 124.1 116.2 124.1 117.6Z" fill="white"/>
<path d="M124.5 119.1L126.203 118.052H126.203L124.5 119.1ZM125.6 120.25L124.438 121.877L124.464 121.896L124.491 121.914L125.6 120.25ZM127.35 121.2L126.529 123.024L126.568 123.041L126.607 123.057L127.35 121.2ZM129.55 122.05L130.259 120.18L130.252 120.177L129.55 122.05ZM132.4 123.35L131.456 125.113L131.493 125.133L131.531 125.151L132.4 123.35ZM134.95 125.1L133.569 126.547L133.603 126.579L133.638 126.609L134.95 125.1ZM136.8 127.55L134.999 128.419L136.8 127.55ZM136.25 136.45L134.502 135.479L134.498 135.485L134.494 135.492L136.25 136.45ZM133.05 140.05L134.169 141.708L134.183 141.698L134.197 141.688L133.05 140.05ZM128.5 142L128.042 140.053L128.5 142ZM117.3 141.8L117.868 139.882L117.3 141.8ZM112.8 139.85L111.005 138.969L110.217 140.573L111.723 141.535L112.8 139.85ZM115.45 134.45L116.793 132.968L114.825 131.184L113.655 133.569L115.45 134.45ZM119.15 136.85L118.326 138.672L118.334 138.676L118.342 138.679L119.15 136.85ZM129.7 136.4L128.429 134.856L129.7 136.4ZM130.8 130.75L129.093 131.793L129.114 131.827L129.136 131.859L130.8 130.75ZM129.4 129.25L128.185 130.839L128.215 130.862L128.247 130.884L129.4 129.25ZM127.55 128.2L126.774 130.043L126.79 130.05L126.807 130.057L127.55 128.2ZM125.85 127.5L126.593 125.643L126.549 125.625L126.504 125.61L125.85 127.5ZM123.2 126.45L122.362 128.266L122.375 128.272L122.388 128.278L123.2 126.45ZM120.75 124.95L119.443 126.464L119.479 126.495L119.517 126.525L120.75 124.95ZM118.95 122.65L117.174 123.571L118.95 122.65ZM119.25 114.45L121.039 115.344L121.043 115.336L121.048 115.327L119.25 114.45ZM121.95 111.15L120.788 109.523L120.776 109.531L120.765 109.539L121.95 111.15ZM126 109.35L126.465 111.295L126.48 111.292L126.495 111.288L126 109.35ZM136.15 109.3L135.712 111.251L135.72 111.253L136.15 109.3ZM140.2 110.65L142.015 111.489L142.819 109.751L141.117 108.873L140.2 110.65ZM137.75 115.95L136.558 117.556L138.533 119.022L139.565 116.789L137.75 115.95ZM133.95 114.15L133.383 116.068L133.395 116.071L133.95 114.15ZM125.65 114.5L126.734 116.181L126.734 116.181L125.65 114.5ZM122.1 117.6C122.1 118.493 122.315 119.365 122.797 120.148L126.203 118.052C126.152 117.969 126.1 117.84 126.1 117.6H122.1ZM122.797 120.148C123.22 120.836 123.781 121.409 124.438 121.877L126.762 118.623C126.485 118.425 126.313 118.231 126.203 118.052L122.797 120.148ZM124.491 121.914C125.099 122.32 125.783 122.688 126.529 123.024L128.171 119.376C127.584 119.112 127.101 118.847 126.709 118.586L124.491 121.914ZM126.607 123.057C127.29 123.33 128.037 123.618 128.848 123.923L130.252 120.177C129.463 119.882 128.744 119.603 128.093 119.343L126.607 123.057ZM128.841 123.92C129.725 124.255 130.596 124.653 131.456 125.113L133.344 121.587C132.337 121.047 131.308 120.578 130.259 120.18L128.841 123.92ZM131.531 125.151C132.32 125.532 132.995 125.999 133.569 126.547L136.331 123.653C135.438 122.801 134.413 122.101 133.269 121.549L131.531 125.151ZM133.638 126.609C134.188 127.088 134.643 127.683 134.999 128.419L138.601 126.681C138.023 125.484 137.245 124.445 136.262 123.591L133.638 126.609ZM134.999 128.419C135.307 129.057 135.5 129.897 135.5 131H139.5C139.5 129.437 139.226 127.976 138.601 126.681L134.999 128.419ZM135.5 131C135.5 132.875 135.134 134.34 134.502 135.479L137.998 137.421C139.032 135.56 139.5 133.392 139.5 131H135.5ZM134.494 135.492C133.838 136.696 132.977 137.66 131.903 138.412L134.197 141.688C135.79 140.573 137.062 139.138 138.006 137.408L134.494 135.492ZM131.931 138.392C130.815 139.145 129.526 139.704 128.042 140.053L128.958 143.947C130.874 143.496 132.618 142.755 134.169 141.708L131.931 138.392ZM128.042 140.053C126.494 140.417 124.914 140.6 123.3 140.6V144.6C125.219 144.6 127.106 144.383 128.958 143.947L128.042 140.053ZM123.3 140.6C121.26 140.6 119.455 140.353 117.868 139.882L116.732 143.718C118.745 144.314 120.94 144.6 123.3 144.6V140.6ZM117.868 139.882C116.194 139.386 114.878 138.804 113.877 138.165L111.723 141.535C113.122 142.429 114.806 143.147 116.732 143.718L117.868 139.882ZM114.595 140.731L117.245 135.331L113.655 133.569L111.005 138.969L114.595 140.731ZM114.107 135.932C115.338 137.047 116.749 137.959 118.326 138.672L119.974 135.028C118.751 134.474 117.695 133.786 116.793 132.968L114.107 135.932ZM118.342 138.679C120.09 139.452 122.096 139.8 124.3 139.8V135.8C122.504 135.8 121.077 135.515 119.958 135.021L118.342 138.679ZM124.3 139.8C126.941 139.8 129.307 139.315 130.971 137.944L128.429 134.856C127.827 135.352 126.592 135.8 124.3 135.8V139.8ZM130.971 137.944C132.553 136.641 133.4 134.898 133.4 132.85H129.4C129.4 133.669 129.114 134.292 128.429 134.856L130.971 137.944ZM133.4 132.85C133.4 131.7 133.107 130.605 132.464 129.641L129.136 131.859C129.293 132.095 129.4 132.4 129.4 132.85H133.4ZM132.507 129.707C132 128.878 131.346 128.176 130.553 127.616L128.247 130.884C128.587 131.124 128.867 131.422 129.093 131.793L132.507 129.707ZM130.615 127.661C129.903 127.117 129.127 126.677 128.293 126.343L126.807 130.057C127.306 130.257 127.764 130.517 128.185 130.839L130.615 127.661ZM128.326 126.357C127.685 126.087 127.106 125.849 126.593 125.643L125.107 129.357C125.594 129.551 126.149 129.78 126.774 130.043L128.326 126.357ZM126.504 125.61C125.695 125.33 124.864 125.001 124.012 124.622L122.388 128.278C123.336 128.699 124.272 129.07 125.196 129.39L126.504 125.61ZM124.038 124.634C123.315 124.3 122.63 123.882 121.983 123.375L119.517 126.525C120.403 127.218 121.352 127.8 122.362 128.266L124.038 124.634ZM122.057 123.436C121.525 122.977 121.081 122.414 120.726 121.729L117.174 123.571C117.753 124.686 118.508 125.657 119.443 126.464L122.057 123.436ZM120.726 121.729C120.445 121.189 120.25 120.41 120.25 119.3H116.25C116.25 120.856 116.521 122.311 117.174 123.571L120.726 121.729ZM120.25 119.3C120.25 117.628 120.544 116.334 121.039 115.344L117.461 113.556C116.623 115.232 116.25 117.172 116.25 119.3H120.25ZM121.048 115.327C121.584 114.227 122.283 113.388 123.135 112.761L120.765 109.539C119.35 110.579 118.249 111.94 117.452 113.573L121.048 115.327ZM123.112 112.777C124.049 112.108 125.158 111.608 126.465 111.295L125.535 107.405C123.776 107.825 122.184 108.525 120.788 109.523L123.112 112.777ZM126.495 111.288C127.889 110.932 129.372 110.75 130.95 110.75V106.75C129.062 106.75 127.245 106.968 125.505 107.412L126.495 111.288ZM130.95 110.75C132.65 110.75 134.235 110.92 135.712 111.251L136.588 107.349C134.798 106.947 132.917 106.75 130.95 106.75V110.75ZM135.72 111.253C137.289 111.598 138.457 112.001 139.283 112.427L141.117 108.873C139.876 108.232 138.345 107.735 136.58 107.347L135.72 111.253ZM138.385 109.811L135.935 115.111L139.565 116.789L142.015 111.489L138.385 109.811ZM138.942 114.344C137.681 113.408 136.187 112.714 134.505 112.229L133.395 116.071C134.713 116.452 135.753 116.958 136.558 117.556L138.942 114.344ZM134.517 112.232C132.893 111.752 131.301 111.5 129.75 111.5V115.5C130.866 115.5 132.074 115.681 133.383 116.068L134.517 112.232ZM129.75 111.5C127.807 111.5 126.024 111.879 124.566 112.819L126.734 116.181C127.343 115.788 128.293 115.5 129.75 115.5V111.5ZM124.566 112.819C122.874 113.911 122.1 115.631 122.1 117.6H126.1C126.1 116.769 126.359 116.423 126.734 116.181L124.566 112.819Z" fill="white"/>
</svg>
