<svg width="304" height="240" viewBox="0 0 304 240" fill="none" xmlns="http://www.w3.org/2000/svg">
<path d="M179.5 59C183 53.2 185 46.3 185 39C185 17.5 167.5 0 146 0C124.5 0 107 17.5 107 39C107 60.5 124.5 78 146 78C154.4 78 162.2 75.3 168.6 70.8L183.7 85.1C185.2 86.6 187.2 87.4 189.3 87.4C191.4 87.4 193.4 86.6 195 85.1C196.5 83.6 197.3 81.6 197.3 79.4C197.3 77.2 196.5 75.3 195 73.7L179.5 59ZM146 70C128.9 70 115 56.1 115 39C115 21.9 128.9 8 146 8C163.1 8 177 21.9 177 39C177 56.1 163.1 70 146 70Z" fill="black"/>
<path d="M21.1431 178.909C18.3289 178.1 16.2782 177.109 14.9907 175.935C13.7147 174.75 13.0767 173.292 13.0767 171.56C13.0767 169.6 13.8571 167.983 15.418 166.707C16.9902 165.419 19.0296 164.775 21.5361 164.775C23.2451 164.775 24.7661 165.106 26.0991 165.767C27.4435 166.427 28.4803 167.339 29.2095 168.501C29.95 169.663 30.3203 170.933 30.3203 172.312H27.022C27.022 170.808 26.5435 169.629 25.5864 168.774C24.6294 167.909 23.2793 167.476 21.5361 167.476C19.9183 167.476 18.6536 167.834 17.7422 168.552C16.8421 169.259 16.3921 170.244 16.3921 171.509C16.3921 172.523 16.8193 173.383 17.6738 174.089C18.5397 174.784 20.0037 175.422 22.0659 176.003C24.1395 176.584 25.7573 177.228 26.9194 177.935C28.0929 178.63 28.9588 179.444 29.5171 180.378C30.0868 181.313 30.3716 182.412 30.3716 183.677C30.3716 185.693 29.5854 187.311 28.0132 188.53C26.4409 189.738 24.3389 190.342 21.707 190.342C19.998 190.342 18.403 190.017 16.9219 189.368C15.4408 188.707 14.2957 187.807 13.4868 186.667C12.6893 185.528 12.2905 184.235 12.2905 182.788H15.5889C15.5889 184.292 16.1414 185.483 17.2466 186.36C18.3631 187.226 19.8499 187.659 21.707 187.659C23.4388 187.659 24.7661 187.306 25.689 186.599C26.6118 185.893 27.0732 184.93 27.0732 183.711C27.0732 182.492 26.646 181.552 25.7915 180.891C24.937 180.219 23.3875 179.558 21.1431 178.909ZM41.7705 190.342C39.264 190.342 37.2246 189.521 35.6523 187.881C34.0801 186.229 33.2939 184.024 33.2939 181.267V180.686C33.2939 178.852 33.6414 177.217 34.3364 175.781C35.0428 174.334 36.0226 173.206 37.2759 172.397C38.5405 171.577 39.9077 171.167 41.3774 171.167C43.7814 171.167 45.6499 171.959 46.9829 173.542C48.3159 175.126 48.9824 177.393 48.9824 180.344V181.66H36.4556C36.5011 183.483 37.0309 184.958 38.0449 186.086C39.0703 187.203 40.3691 187.761 41.9414 187.761C43.0579 187.761 44.0036 187.533 44.7783 187.078C45.5531 186.622 46.231 186.018 46.812 185.266L48.7432 186.77C47.1937 189.151 44.8695 190.342 41.7705 190.342ZM41.3774 173.765C40.1014 173.765 39.0304 174.232 38.1646 175.166C37.2987 176.089 36.7632 177.388 36.5581 179.062H45.8208V178.823C45.7297 177.217 45.2967 175.975 44.522 175.098C43.7472 174.209 42.6991 173.765 41.3774 173.765ZM64.0728 190C63.8905 189.635 63.7424 188.986 63.6284 188.052C62.1587 189.578 60.4041 190.342 58.3647 190.342C56.5418 190.342 55.0436 189.829 53.8701 188.804C52.708 187.767 52.127 186.457 52.127 184.873C52.127 182.948 52.8561 181.455 54.3145 180.396C55.7842 179.325 57.8464 178.789 60.501 178.789H63.5771V177.336C63.5771 176.231 63.2467 175.354 62.5859 174.705C61.9251 174.044 60.951 173.713 59.6636 173.713C58.5356 173.713 57.59 173.998 56.8267 174.568C56.0633 175.138 55.6816 175.827 55.6816 176.636H52.5029C52.5029 175.713 52.8276 174.824 53.4771 173.97C54.1379 173.104 55.0265 172.42 56.1431 171.919C57.271 171.418 58.5072 171.167 59.8516 171.167C61.9821 171.167 63.6512 171.702 64.8589 172.773C66.0666 173.833 66.6932 175.297 66.7388 177.166V185.676C66.7388 187.374 66.9552 188.724 67.3882 189.727V190H64.0728ZM58.8262 187.59C59.8174 187.59 60.7573 187.334 61.646 186.821C62.5347 186.309 63.1784 185.642 63.5771 184.822V181.028H61.0991C57.2254 181.028 55.2886 182.161 55.2886 184.429C55.2886 185.42 55.619 186.195 56.2798 186.753C56.9406 187.311 57.7894 187.59 58.8262 187.59ZM80.6328 174.346C80.1543 174.266 79.6359 174.226 79.0776 174.226C77.0041 174.226 75.597 175.109 74.8564 176.875V190H71.6948V171.509H74.771L74.8223 173.645C75.859 171.993 77.3288 171.167 79.2314 171.167C79.8467 171.167 80.3138 171.247 80.6328 171.406V174.346ZM90.6304 187.761C91.7583 187.761 92.7438 187.419 93.5869 186.736C94.43 186.052 94.8971 185.198 94.9883 184.172H97.979C97.922 185.232 97.5575 186.24 96.8853 187.197C96.2131 188.154 95.313 188.918 94.1851 189.487C93.0685 190.057 91.8836 190.342 90.6304 190.342C88.1125 190.342 86.1073 189.504 84.6147 187.83C83.1336 186.143 82.3931 183.842 82.3931 180.925V180.396C82.3931 178.595 82.7235 176.995 83.3843 175.593C84.0451 174.192 84.9907 173.104 86.2212 172.329C87.4631 171.554 88.9271 171.167 90.6133 171.167C92.6868 171.167 94.4072 171.788 95.7744 173.03C97.153 174.272 97.8879 175.884 97.979 177.866H94.9883C94.8971 176.67 94.4414 175.69 93.6211 174.927C92.8122 174.152 91.8096 173.765 90.6133 173.765C89.0068 173.765 87.7593 174.346 86.8706 175.508C85.9933 176.659 85.5547 178.328 85.5547 180.515V181.113C85.5547 183.244 85.9933 184.884 86.8706 186.035C87.7479 187.186 89.0011 187.761 90.6304 187.761ZM104.695 173.748C106.097 172.027 107.92 171.167 110.164 171.167C114.072 171.167 116.043 173.372 116.077 177.781V190H112.916V177.764C112.904 176.431 112.597 175.445 111.993 174.807C111.4 174.169 110.472 173.85 109.207 173.85C108.182 173.85 107.282 174.124 106.507 174.67C105.732 175.217 105.128 175.935 104.695 176.824V190H101.534V163.75H104.695V173.748ZM138.431 174.346C137.952 174.266 137.434 174.226 136.875 174.226C134.802 174.226 133.395 175.109 132.654 176.875V190H129.493V171.509H132.569L132.62 173.645C133.657 171.993 135.127 171.167 137.029 171.167C137.645 171.167 138.112 171.247 138.431 171.406V174.346ZM148.685 190.342C146.178 190.342 144.139 189.521 142.566 187.881C140.994 186.229 140.208 184.024 140.208 181.267V180.686C140.208 178.852 140.556 177.217 141.25 175.781C141.957 174.334 142.937 173.206 144.19 172.397C145.455 171.577 146.822 171.167 148.292 171.167C150.695 171.167 152.564 171.959 153.897 173.542C155.23 175.126 155.896 177.393 155.896 180.344V181.66H143.37C143.415 183.483 143.945 184.958 144.959 186.086C145.984 187.203 147.283 187.761 148.855 187.761C149.972 187.761 150.918 187.533 151.692 187.078C152.467 186.622 153.145 186.018 153.726 185.266L155.657 186.77C154.108 189.151 151.784 190.342 148.685 190.342ZM148.292 173.765C147.015 173.765 145.944 174.232 145.079 175.166C144.213 176.089 143.677 177.388 143.472 179.062H152.735V178.823C152.644 177.217 152.211 175.975 151.436 175.098C150.661 174.209 149.613 173.765 148.292 173.765ZM170.337 185.095C170.337 184.241 170.013 183.58 169.363 183.113C168.725 182.634 167.603 182.224 165.997 181.882C164.402 181.541 163.131 181.13 162.186 180.652C161.251 180.173 160.556 179.604 160.101 178.943C159.656 178.282 159.434 177.496 159.434 176.584C159.434 175.069 160.072 173.787 161.348 172.739C162.636 171.691 164.276 171.167 166.27 171.167C168.366 171.167 170.064 171.708 171.363 172.791C172.673 173.873 173.328 175.257 173.328 176.943H170.149C170.149 176.077 169.779 175.331 169.039 174.705C168.309 174.078 167.387 173.765 166.27 173.765C165.119 173.765 164.219 174.015 163.57 174.517C162.92 175.018 162.596 175.673 162.596 176.482C162.596 177.245 162.898 177.821 163.501 178.208C164.105 178.595 165.193 178.966 166.766 179.319C168.349 179.672 169.631 180.094 170.611 180.583C171.591 181.073 172.314 181.666 172.781 182.361C173.26 183.044 173.499 183.882 173.499 184.873C173.499 186.525 172.838 187.852 171.517 188.855C170.195 189.846 168.48 190.342 166.373 190.342C164.891 190.342 163.581 190.08 162.442 189.556C161.303 189.032 160.408 188.302 159.759 187.368C159.121 186.423 158.802 185.403 158.802 184.309H161.963C162.02 185.369 162.442 186.212 163.228 186.838C164.026 187.454 165.074 187.761 166.373 187.761C167.569 187.761 168.526 187.522 169.244 187.043C169.973 186.554 170.337 185.904 170.337 185.095ZM189.034 188.171C187.803 189.618 185.997 190.342 183.616 190.342C181.645 190.342 180.141 189.772 179.104 188.633C178.079 187.482 177.561 185.785 177.549 183.54V171.509H180.711V183.455C180.711 186.257 181.85 187.659 184.129 187.659C186.544 187.659 188.151 186.759 188.948 184.958V171.509H192.11V190H189.102L189.034 188.171ZM200.364 190H197.203V163.75H200.364V190ZM209.729 167.031V171.509H213.182V173.953H209.729V185.42C209.729 186.16 209.883 186.719 210.191 187.095C210.499 187.459 211.023 187.642 211.763 187.642C212.128 187.642 212.629 187.573 213.267 187.437V190C212.435 190.228 211.626 190.342 210.84 190.342C209.428 190.342 208.362 189.915 207.645 189.06C206.927 188.206 206.568 186.992 206.568 185.42V173.953H203.201V171.509H206.568V167.031H209.729ZM227.657 185.095C227.657 184.241 227.332 183.58 226.683 183.113C226.045 182.634 224.922 182.224 223.316 181.882C221.721 181.541 220.451 181.13 219.505 180.652C218.571 180.173 217.876 179.604 217.42 178.943C216.976 178.282 216.753 177.496 216.753 176.584C216.753 175.069 217.391 173.787 218.667 172.739C219.955 171.691 221.596 171.167 223.589 171.167C225.686 171.167 227.383 171.708 228.682 172.791C229.992 173.873 230.647 175.257 230.647 176.943H227.469C227.469 176.077 227.098 175.331 226.358 174.705C225.629 174.078 224.706 173.765 223.589 173.765C222.439 173.765 221.539 174.015 220.889 174.517C220.24 175.018 219.915 175.673 219.915 176.482C219.915 177.245 220.217 177.821 220.821 178.208C221.425 178.595 222.513 178.966 224.085 179.319C225.669 179.672 226.95 180.094 227.93 180.583C228.91 181.073 229.633 181.666 230.101 182.361C230.579 183.044 230.818 183.882 230.818 184.873C230.818 186.525 230.158 187.852 228.836 188.855C227.514 189.846 225.8 190.342 223.692 190.342C222.211 190.342 220.901 190.08 219.761 189.556C218.622 189.032 217.728 188.302 217.078 187.368C216.44 186.423 216.121 185.403 216.121 184.309H219.283C219.34 185.369 219.761 186.212 220.547 186.838C221.345 187.454 222.393 187.761 223.692 187.761C224.888 187.761 225.845 187.522 226.563 187.043C227.292 186.554 227.657 185.904 227.657 185.095ZM259.991 185.642L263.545 171.509H266.707L261.324 190H258.76L254.266 175.986L249.891 190H247.327L241.961 171.509H245.105L248.746 185.352L253.052 171.509H255.599L259.991 185.642ZM273.372 190H270.21V171.509H273.372V190ZM269.954 166.604C269.954 166.091 270.108 165.658 270.416 165.305C270.735 164.952 271.202 164.775 271.817 164.775C272.432 164.775 272.899 164.952 273.218 165.305C273.537 165.658 273.697 166.091 273.697 166.604C273.697 167.117 273.537 167.544 273.218 167.886C272.899 168.228 272.432 168.398 271.817 168.398C271.202 168.398 270.735 168.228 270.416 167.886C270.108 167.544 269.954 167.117 269.954 166.604ZM281.883 190H278.721V163.75H281.883V190ZM290.394 190H287.232V163.75H290.394V190ZM73.6089 231C73.4266 230.635 73.2785 229.986 73.1646 229.052C71.6948 230.578 69.9403 231.342 67.9009 231.342C66.078 231.342 64.5798 230.829 63.4062 229.804C62.2441 228.767 61.6631 227.457 61.6631 225.873C61.6631 223.948 62.3923 222.455 63.8506 221.396C65.3203 220.325 67.3825 219.789 70.0371 219.789H73.1133V218.336C73.1133 217.231 72.7829 216.354 72.1221 215.705C71.4613 215.044 70.4871 214.713 69.1997 214.713C68.0718 214.713 67.1261 214.998 66.3628 215.568C65.5994 216.138 65.2178 216.827 65.2178 217.636H62.0391C62.0391 216.713 62.3638 215.824 63.0132 214.97C63.674 214.104 64.5627 213.42 65.6792 212.919C66.8071 212.418 68.0433 212.167 69.3877 212.167C71.5182 212.167 73.1873 212.702 74.395 213.773C75.6027 214.833 76.2293 216.297 76.2749 218.166V226.676C76.2749 228.374 76.4914 229.724 76.9243 230.727V231H73.6089ZM68.3623 228.59C69.3535 228.59 70.2935 228.334 71.1821 227.821C72.0708 227.309 72.7145 226.642 73.1133 225.822V222.028H70.6353C66.7616 222.028 64.8247 223.161 64.8247 225.429C64.8247 226.42 65.1551 227.195 65.8159 227.753C66.4767 228.311 67.3255 228.59 68.3623 228.59ZM96.8511 221.959C96.8511 224.774 96.2074 227.041 94.9199 228.761C93.6325 230.482 91.8893 231.342 89.6904 231.342C87.446 231.342 85.68 230.63 84.3926 229.206V238.109H81.231V212.509H84.1191L84.2729 214.56C85.5604 212.965 87.3491 212.167 89.6392 212.167C91.8608 212.167 93.6154 213.004 94.9028 214.679C96.2017 216.354 96.8511 218.684 96.8511 221.669V221.959ZM93.6895 221.601C93.6895 219.516 93.2451 217.869 92.3564 216.662C91.4678 215.454 90.2487 214.85 88.6992 214.85C86.7852 214.85 85.3496 215.699 84.3926 217.396V226.232C85.3382 227.918 86.7852 228.761 88.7334 228.761C90.2487 228.761 91.4507 228.163 92.3394 226.967C93.2394 225.759 93.6895 223.97 93.6895 221.601ZM116.504 221.959C116.504 224.774 115.861 227.041 114.573 228.761C113.286 230.482 111.543 231.342 109.344 231.342C107.099 231.342 105.333 230.63 104.046 229.206V238.109H100.884V212.509H103.772L103.926 214.56C105.214 212.965 107.002 212.167 109.292 212.167C111.514 212.167 113.269 213.004 114.556 214.679C115.855 216.354 116.504 218.684 116.504 221.669V221.959ZM113.343 221.601C113.343 219.516 112.898 217.869 112.01 216.662C111.121 215.454 109.902 214.85 108.353 214.85C106.438 214.85 105.003 215.699 104.046 217.396V226.232C104.992 227.918 106.438 228.761 108.387 228.761C109.902 228.761 111.104 228.163 111.993 226.967C112.893 225.759 113.343 223.97 113.343 221.601ZM128.211 231.342C125.704 231.342 123.665 230.521 122.093 228.881C120.521 227.229 119.734 225.024 119.734 222.267V221.686C119.734 219.852 120.082 218.217 120.777 216.781C121.483 215.334 122.463 214.206 123.716 213.397C124.981 212.577 126.348 212.167 127.818 212.167C130.222 212.167 132.09 212.959 133.423 214.542C134.756 216.126 135.423 218.393 135.423 221.344V222.66H122.896C122.942 224.483 123.471 225.958 124.485 227.086C125.511 228.203 126.81 228.761 128.382 228.761C129.498 228.761 130.444 228.533 131.219 228.078C131.993 227.622 132.671 227.018 133.252 226.266L135.184 227.77C133.634 230.151 131.31 231.342 128.211 231.342ZM127.818 214.765C126.542 214.765 125.471 215.232 124.605 216.166C123.739 217.089 123.204 218.388 122.999 220.062H132.261V219.823C132.17 218.217 131.737 216.975 130.962 216.098C130.188 215.209 129.139 214.765 127.818 214.765ZM150.513 231C150.331 230.635 150.183 229.986 150.069 229.052C148.599 230.578 146.845 231.342 144.805 231.342C142.982 231.342 141.484 230.829 140.311 229.804C139.148 228.767 138.567 227.457 138.567 225.873C138.567 223.948 139.297 222.455 140.755 221.396C142.225 220.325 144.287 219.789 146.941 219.789H150.018V218.336C150.018 217.231 149.687 216.354 149.026 215.705C148.366 215.044 147.391 214.713 146.104 214.713C144.976 214.713 144.03 214.998 143.267 215.568C142.504 216.138 142.122 216.827 142.122 217.636H138.943C138.943 216.713 139.268 215.824 139.917 214.97C140.578 214.104 141.467 213.42 142.583 212.919C143.711 212.418 144.948 212.167 146.292 212.167C148.423 212.167 150.092 212.702 151.299 213.773C152.507 214.833 153.134 216.297 153.179 218.166V226.676C153.179 228.374 153.396 229.724 153.829 230.727V231H150.513ZM145.267 228.59C146.258 228.59 147.198 228.334 148.086 227.821C148.975 227.309 149.619 226.642 150.018 225.822V222.028H147.54C143.666 222.028 141.729 223.161 141.729 225.429C141.729 226.42 142.059 227.195 142.72 227.753C143.381 228.311 144.23 228.59 145.267 228.59ZM167.073 215.346C166.595 215.266 166.076 215.226 165.518 215.226C163.444 215.226 162.037 216.109 161.297 217.875V231H158.135V212.509H161.211L161.263 214.645C162.299 212.993 163.769 212.167 165.672 212.167C166.287 212.167 166.754 212.247 167.073 212.406V215.346ZM181.839 214.748C183.24 213.027 185.063 212.167 187.308 212.167C191.215 212.167 193.187 214.372 193.221 218.781V231H190.059V218.764C190.048 217.431 189.74 216.445 189.136 215.807C188.544 215.169 187.615 214.85 186.351 214.85C185.325 214.85 184.425 215.124 183.65 215.67C182.876 216.217 182.272 216.935 181.839 217.824V231H178.677V204.75H181.839V214.748ZM205.628 231.342C203.121 231.342 201.082 230.521 199.51 228.881C197.938 227.229 197.151 225.024 197.151 222.267V221.686C197.151 219.852 197.499 218.217 198.194 216.781C198.9 215.334 199.88 214.206 201.133 213.397C202.398 212.577 203.765 212.167 205.235 212.167C207.639 212.167 209.507 212.959 210.84 214.542C212.173 216.126 212.84 218.393 212.84 221.344V222.66H200.313C200.359 224.483 200.888 225.958 201.902 227.086C202.928 228.203 204.227 228.761 205.799 228.761C206.915 228.761 207.861 228.533 208.636 228.078C209.41 227.622 210.088 227.018 210.669 226.266L212.601 227.77C211.051 230.151 208.727 231.342 205.628 231.342ZM205.235 214.765C203.959 214.765 202.888 215.232 202.022 216.166C201.156 217.089 200.621 218.388 200.416 220.062H209.678V219.823C209.587 218.217 209.154 216.975 208.379 216.098C207.605 215.209 206.556 214.765 205.235 214.765ZM225.452 215.346C224.974 215.266 224.455 215.226 223.897 215.226C221.823 215.226 220.416 216.109 219.676 217.875V231H216.514V212.509H219.59L219.642 214.645C220.678 212.993 222.148 212.167 224.051 212.167C224.666 212.167 225.133 212.247 225.452 212.406V215.346ZM235.706 231.342C233.2 231.342 231.16 230.521 229.588 228.881C228.016 227.229 227.229 225.024 227.229 222.267V221.686C227.229 219.852 227.577 218.217 228.272 216.781C228.978 215.334 229.958 214.206 231.211 213.397C232.476 212.577 233.843 212.167 235.313 212.167C237.717 212.167 239.585 212.959 240.918 214.542C242.251 216.126 242.918 218.393 242.918 221.344V222.66H230.391C230.437 224.483 230.966 225.958 231.98 227.086C233.006 228.203 234.305 228.761 235.877 228.761C236.993 228.761 237.939 228.533 238.714 228.078C239.489 227.622 240.167 227.018 240.748 226.266L242.679 227.77C241.129 230.151 238.805 231.342 235.706 231.342ZM235.313 214.765C234.037 214.765 232.966 215.232 232.1 216.166C231.234 217.089 230.699 218.388 230.494 220.062H239.756V219.823C239.665 218.217 239.232 216.975 238.458 216.098C237.683 215.209 236.635 214.765 235.313 214.765Z" fill="black"/>
</svg>
